<svg width="40" height="36" viewBox="0 0 1024 1280" fill="none" xmlns="http://www.w3.org/2000/svg"><path fill-rule="evenodd" clip-rule="evenodd" d="M354.969 546.036C324.285 526.042 304 491.426 304 452.071 304 390.176 354.176 340 416.071 340h192.014c61.895 0 112.071 50.176 112.071 112.071 0 39.355-20.284 73.971-50.969 93.965 30.685 19.994 50.969 54.611 50.969 93.965 0 61.895-50.176 112.071-112.071 112.071h-2.043c-29.258 0-55.898-11.212-75.857-29.574v104.409c0 62.587-51.274 113.093-113.606 113.093C354.811 940 304 889.951 304 827.929c0-39.354 20.284-73.97 50.967-93.964C324.284 713.971 304 679.355 304 640.001s20.285-73.971 50.969-93.965Zm175.216 93.965c0 41.895 33.963 75.857 75.857 75.857h2.043c41.895 0 75.857-33.962 75.857-75.857 0-41.895-33.962-75.857-75.857-75.857h-2.043c-41.894 0-75.857 33.962-75.857 75.857Zm-36.214-75.857h-77.9c-41.895 0-75.857 33.962-75.857 75.857 0 41.81 33.825 75.719 75.602 75.857h78.155V564.144Zm-77.9 187.928h-.255c-41.777.137-75.602 34.047-75.602 75.857 0 41.768 34.343 75.857 76.365 75.857 42.586 0 77.392-34.546 77.392-76.879v-74.835h-77.9Zm77.9-224.144h-77.9c-41.895 0-75.857-33.962-75.857-75.857 0-41.895 33.962-75.857 75.857-75.857h77.9v151.714Zm114.114 0h-77.9V376.214h77.9c41.895 0 75.857 33.962 75.857 75.857 0 41.895-33.962 75.857-75.857 75.857Z" fill="#fff"/></svg>