<?xml version="1.0" encoding="UTF-8" standalone="no"?><!DOCTYPE svg PUBLIC "-//W3C//DTD SVG 1.1//EN" "http://www.w3.org/Graphics/SVG/1.1/DTD/svg11.dtd"><svg width="100%" height="100%" viewBox="0 0 48 48" version="1.1" xmlns="http://www.w3.org/2000/svg" xmlns:xlink="http://www.w3.org/1999/xlink" xml:space="preserve" xmlns:serif="http://www.serif.com/" style="fill-rule: evenodd; clip-rule: evenodd; stroke-linecap: square; stroke-miterlimit: 1.5"><path d="M48,6.609l0,34.782c0,3.648 -2.961,6.609 -6.609,6.609l-34.782,-0c-3.648,-0 -6.609,-2.961 -6.609,-6.609l0,-34.782c0,-3.648 2.961,-6.609 6.609,-6.609l34.782,-0c3.648,-0 6.609,2.961 6.609,6.609Z"></path><rect id="Artboard1" x="0" y="0" width="48" height="48" style="fill: none"></rect><clipPath id="_clip1"><rect id="Artboard11" serif:id="Artboard1" x="0" y="0" width="48" height="48"></rect></clipPath><g clip-path="url('#_clip1')"><g><path d="M32.849,9.031l14.534,14.932l-15.016,15.006" style="fill: none; stroke: #000; stroke-width: 6.2px"></path><path d="M15.151,38.969l-14.534,-14.932l15.016,-15.006" style="fill: none; stroke: #000; stroke-width: 6.2px"></path></g><g transform="matrix(0.787975,0,0,1,-1.55405,0)"><g transform="matrix(54.2414,0,0,54.2414,65.5363,41.2153)"></g><text x="1.972px" y="41.215px" style="fill: #ff00a2; font-family: Japanese3017, &quot;Japanese 3017&quot;; font-size: 54.241px">TK</text></g></g></svg>