<?xml version="1.0" encoding="UTF-8" standalone="no"?><!DOCTYPE svg PUBLIC "-//W3C//DTD SVG 1.1//EN" "http://www.w3.org/Graphics/SVG/1.1/DTD/svg11.dtd"><svg width="100%" height="100%" viewBox="0 0 48 48" version="1.1" xmlns="http://www.w3.org/2000/svg" xmlns:xlink="http://www.w3.org/1999/xlink" xml:space="preserve" xmlns:serif="http://www.serif.com/" style="fill-rule: evenodd; clip-rule: evenodd; stroke-linecap: square; stroke-miterlimit: 1.5"><path d="M48,5.391l0,37.218c0,2.975 -2.416,5.391 -5.391,5.391l-37.218,0c-2.975,0 -5.391,-2.416 -5.391,-5.391l0,-37.218c0,-2.975 2.416,-5.391 5.391,-5.391l37.218,0c2.975,0 5.391,2.416 5.391,5.391Z"></path><rect id="Artboard1" x="0" y="0" width="48" height="48" style="fill: none"></rect><clipPath id="_clip1"><rect id="Artboard11" serif:id="Artboard1" x="0" y="0" width="48" height="48"></rect></clipPath><g clip-path="url('#_clip1')"><g><path d="M32.849,9.031l14.534,14.932l-15.016,15.006" style="fill: none; stroke: #000; stroke-width: 6.2px"></path><path d="M15.151,38.969l-14.534,-14.932l15.016,-15.006" style="fill: none; stroke: #000; stroke-width: 6.2px"></path></g><g transform="matrix(0.787975,0,0,1,-1.0555,0)"><g transform="matrix(44.2082,0,0,44.2082,54.4095,37.7251)"></g><text x="2.603px" y="37.725px" style="fill: #ff00a2; font-family: Japanese3017, &quot;Japanese 3017&quot;; font-size: 44.208px">TK</text></g><g><path d="M42.582,21.584l2.346,2.41l-2.424,2.422" style="fill: none; stroke: #ff00a2; stroke-width: 2.78px"></path><path d="M37.652,26.416l-2.346,-2.41l2.424,-2.422" style="fill: none; stroke: #ff00a2; stroke-width: 2.85px"></path></g></g></svg>