<?xml version="1.0" encoding="UTF-8" standalone="no"?>
<!DOCTYPE svg PUBLIC "-//W3C//DTD SVG 1.1//EN" "http://www.w3.org/Graphics/SVG/1.1/DTD/svg11.dtd">
<svg width="30px" viewBox="0 0 30 34" version="1.1" xmlns="http://www.w3.org/2000/svg" xmlns:xlink="http://www.w3.org/1999/xlink" xml:space="preserve" xmlns:serif="http://www.serif.com/" style="fill-rule: evenodd; clip-rule: evenodd; stroke-linejoin: round; stroke-miterlimit: 2">
    <g transform="matrix(1,0,0,1,-0.182617,-0.745482)">
        <g transform="matrix(0.429348,0,0,0.429348,0.104211,0.425411)">
            <path d="M35.119,79.5c-1.085,0 -2.097,-0.289 -3.038,-0.796l-9.62,-5.716c-1.447,-0.796 -0.723,-1.085 -0.289,-1.23c1.953,-0.651 2.314,-0.795 4.34,-1.953c0.217,-0.145 0.506,-0.072 0.723,0.072l7.378,4.414c0.289,0.144 0.651,0.144 0.868,-0l28.861,-16.713c0.289,-0.145 0.434,-0.435 0.434,-0.796l-0,-33.354c-0,-0.362 -0.145,-0.651 -0.434,-0.796l-28.861,-16.641c-0.289,-0.145 -0.651,-0.145 -0.868,-0l-28.861,16.641c-0.289,0.145 -0.434,0.506 -0.434,0.796l0,33.354c0,0.289 0.145,0.651 0.434,0.796l7.885,4.558c4.267,2.17 6.943,-0.362 6.943,-2.894l0,-32.92c0,-0.434 0.362,-0.868 0.868,-0.868l3.689,-0c0.434,-0 0.868,0.361 0.868,0.868l0,32.92c0,5.715 -3.11,9.044 -8.535,9.044c-1.663,-0.001 -2.965,-0.001 -6.654,-1.809l-7.595,-4.341c-1.881,-1.086 -3.038,-3.111 -3.038,-5.282l-0,-33.354c-0,-2.171 1.157,-4.196 3.038,-5.282l28.86,-16.713c1.809,-1.013 4.268,-1.013 6.076,0l28.861,16.713c1.881,1.086 3.038,3.111 3.038,5.282l0,33.354c0,2.171 -1.157,4.196 -3.038,5.282l-28.861,16.713c-0.868,0.362 -1.953,0.651 -3.038,0.651Z" style="fill: #fff; fill-rule: nonzero"></path>
            <path d="M44.088,56.565c-12.658,-0 -15.262,-5.788 -15.262,-10.708c0,-0.434 0.362,-0.869 0.868,-0.869l3.762,0c0.434,0 0.795,0.29 0.795,0.724c0.579,3.835 2.242,5.716 9.91,5.716c6.076,-0 8.68,-1.375 8.68,-4.631c-0,-1.881 -0.724,-3.256 -10.199,-4.196c-7.885,-0.796 -12.803,-2.532 -12.803,-8.827c-0,-5.861 4.918,-9.333 13.164,-9.333c9.259,-0 13.816,3.183 14.395,10.129c-0,0.217 -0.073,0.434 -0.217,0.651c-0.145,0.145 -0.362,0.289 -0.579,0.289l-3.834,0c-0.361,0 -0.723,-0.289 -0.795,-0.651c-0.868,-3.979 -3.111,-5.282 -9.042,-5.282c-6.655,0 -7.45,2.316 -7.45,4.052c-0,2.098 0.94,2.749 9.909,3.907c8.897,1.158 13.093,2.822 13.093,9.044c-0,6.367 -5.281,9.985 -14.395,9.985Z" style="fill: #fff; fill-rule: nonzero"></path>
        </g>
    </g>
</svg>
