<svg width="40" height="38" viewBox="0 0 71 80" fill="none" xmlns="http://www.w3.org/2000/svg"><g fill="#fff"><path d="M35.12 79.5c-1.086 0-2.098-.29-3.039-.796l-9.62-5.716c-1.447-.796-.723-1.085-.29-1.23 1.954-.65 2.315-.795 4.34-1.953.218-.145.507-.072.724.072l7.378 4.414c.29.144.651.144.868 0l28.86-16.713c.29-.145.435-.435.435-.796V23.428c0-.362-.145-.652-.434-.796L35.48 5.99c-.29-.145-.651-.145-.868 0l-28.86 16.64c-.29.145-.435.507-.435.797v33.354c0 .29.145.65.434.796l7.885 4.558c4.267 2.17 6.943-.362 6.943-2.894v-32.92a.88.88 0 0 1 .868-.869h3.69a.88.88 0 0 1 .867.869v32.92c0 5.715-3.11 9.044-8.535 9.044-1.663 0-2.965 0-6.654-1.81l-7.595-4.34a6.106 6.106 0 0 1-3.038-5.282V23.5a6.107 6.107 0 0 1 3.038-5.282L32.08 1.505c1.809-1.013 4.268-1.013 6.076 0l28.861 16.713a6.107 6.107 0 0 1 3.038 5.282v33.354a6.107 6.107 0 0 1-3.038 5.282l-28.86 16.713c-.869.362-1.954.651-3.039.651Z"/><path d="M44.088 56.565c-12.658 0-15.262-5.788-15.262-10.708a.88.88 0 0 1 .868-.869h3.762c.433 0 .795.29.795.724.579 3.834 2.242 5.716 9.91 5.716 6.076 0 8.68-1.375 8.68-4.63 0-1.882-.724-3.257-10.2-4.197-7.883-.796-12.802-2.532-12.802-8.827 0-5.86 4.919-9.333 13.164-9.333 9.259 0 13.816 3.183 14.395 10.129 0 .217-.073.434-.217.65-.145.146-.362.29-.58.29h-3.833a.848.848 0 0 1-.795-.65c-.868-3.98-3.11-5.282-9.042-5.282-6.655 0-7.45 2.315-7.45 4.051 0 2.098.94 2.75 9.91 3.907 8.896 1.158 13.092 2.822 13.092 9.044 0 6.367-5.28 9.985-14.395 9.985Z"/></g><defs><clipPath id="clip0_337_7892"><path fill="#fff" transform="translate(0 .5)" d="M0 0h71v79H0z"/></clipPath></defs></svg>