<svg width="40" xmlns="http://www.w3.org/2000/svg" viewBox="0 0 80 80"><defs><linearGradient id="linear-gradient" x1="40.02" y1="70.45" x2="40.02" y2="9.52" gradientUnits="userSpaceOnUse"><stop offset="0" stop-color="#fff" stop-opacity=".4"/><stop offset=".11" stop-color="#fff" stop-opacity=".54"/><stop offset=".25" stop-color="#fff" stop-opacity=".71"/><stop offset=".39" stop-color="#fff" stop-opacity=".83"/><stop offset=".52" stop-color="#fff" stop-opacity=".93"/><stop offset=".64" stop-color="#fff" stop-opacity=".98"/><stop offset=".75" stop-color="#fff"/></linearGradient></defs><path d="M63.24 9.52H16.8a7.25 7.25 0 0 0-7.24 7.25v46.44a7.24 7.24 0 0 0 7.24 7.24h46.44a7.25 7.25 0 0 0 7.25-7.24V16.77a7.26 7.26 0 0 0-7.25-7.25ZM35.8 53.41a2.4 2.4 0 0 1-2.4 2.41H23.21a2.4 2.4 0 0 1-2.4-2.41V23.18a2.4 2.4 0 0 1 2.4-2.41H33.4a2.4 2.4 0 0 1 2.4 2.41Zm23.44-13.88a2.41 2.41 0 0 1-2.41 2.41H46.65a2.41 2.41 0 0 1-2.41-2.41V23.18a2.41 2.41 0 0 1 2.41-2.41h10.18a2.41 2.41 0 0 1 2.41 2.41Z" style="fill-rule:evenodd;fill:url(#linear-gradient)" id="Logos"/></svg>