<?xml version="1.0" encoding="iso-8859-1"?><!-- Generator: Adobe Illustrator 23.0.0, SVG Export Plug-In . SVG Version: 6.00 Build 0)  --><svg xmlns="http://www.w3.org/2000/svg" xmlns:xlink="http://www.w3.org/1999/xlink" viewBox="0 0 30 30" width="60px" height="60px"><path d="M24,4H6C4.895,4,4,4.895,4,6v18c0,1.105,0.895,2,2,2h18c1.105,0,2-0.895,2-2V6C26,4.895,25.105,4,24,4z M15.353,19.932H9.063v-9.864h1.764v8.319h4.525V19.932z M21.484,13.978c-0.13-0.048-0.595-0.096-0.861-0.096c-1.087,0-1.853,0.684-1.853,1.729v4.32h-1.695v-7.479h1.634v1.162h0.116c0.205-0.738,1.005-1.285,1.962-1.285c0.239,0,0.533,0.027,0.697,0.075V13.978z"/></svg>